<svg xmlns="http://www.w3.org/2000/svg" viewBox="0 0 760 200" role="img" aria-labelledby="title desc">
  <title id="title">Santa's sleigh and reindeer silhouette</title>
  <desc id="desc">A festive silhouette of Santa riding a sleigh pulled by three reindeer.</desc>
  <g fill="#f8fafc">
    <path d="M206 82l7-12 320 114-7 12z"/>
    <path d="M56 140c0-22 16-40 44-48l28-8v-26l-18 6c-24 8-38 22-38 36 0 6 2 12 4 18H54c-4-8-6-16-6-26 0-26 20-46 54-56l46-12c-6-12-8-22-8-34 0-28 20-50 52-50 22 0 40 10 50 30l10 20 58-12c24-4 40 10 40 34 0 32-26 58-70 70l-88 22c14 20 40 32 66 32 26 0 48-10 68-28l18 16c-24 24-56 36-88 36-40 0-74-18-94-50l-36 8c-18 4-26 16-26 30 0 6 2 12 4 18H32c-4-8-6-18-6-28 0-28 20-52 54-60l34-8V96l-22 8c-16 6-32 18-32 36z"/>
    <circle cx="228" cy="46" r="16"/>
    <path d="M214 34l34-10 10 20-32 12z"/>
    <path d="M224 90c32-6 68-8 102-6l-2 18-100 8z"/>
    <g transform="translate(318 44) scale(0.95)">
      <path d="M8 74c4-18 18-30 38-30h30l10-18 12 6-10 16h18c16 0 28 8 30 20 2 12-6 22-20 28l-18 6 18 8c10 6 14 12 12 22-4 12-18 20-34 20-16 0-30-6-40-16l-8 16H28l12-24-20-6 6-12 18 6 8-18-18-2c-14-2-24-10-26-20z"/>
      <path d="M86 18l16-18 10 8-14 18 18-4 6 10-24 6z"/>
    </g>
    <g transform="translate(456 36) scale(1.02)">
      <path d="M8 74c4-18 18-30 38-30h30l10-18 12 6-10 16h18c16 0 28 8 30 20 2 12-6 22-20 28l-18 6 18 8c10 6 14 12 12 22-4 12-18 20-34 20-16 0-30-6-40-16l-8 16H28l12-24-20-6 6-12 18 6 8-18-18-2c-14-2-24-10-26-20z"/>
      <path d="M86 18l16-18 10 8-14 18 18-4 6 10-24 6z"/>
    </g>
    <g transform="translate(594 30) scale(1.08)">
      <path d="M8 74c4-18 18-30 38-30h30l10-18 12 6-10 16h18c16 0 28 8 30 20 2 12-6 22-20 28l-18 6 18 8c10 6 14 12 12 22-4 12-18 20-34 20-16 0-30-6-40-16l-8 16H28l12-24-20-6 6-12 18 6 8-18-18-2c-14-2-24-10-26-20z"/>
      <path d="M86 18l16-18 10 8-14 18 18-4 6 10-24 6z"/>
    </g>
  </g>
</svg>
